<mxfile host="app.diagrams.net" modified="2020-03-27T07:07:45.832Z" agent="Mozilla/5.0 (Windows NT 10.0; Win64; x64) AppleWebKit/537.36 (KHTML, like Gecko) Chrome/80.0.3987.149 Safari/537.36" etag="Awqo1pJAqdxs6648do4N" version="12.9.3" type="github">
  <diagram id="C5RBs43oDa-KdzZeNtuy" name="Page-1">
    <mxGraphModel dx="1038" dy="588" grid="1" gridSize="10" guides="1" tooltips="1" connect="1" arrows="1" fold="1" page="1" pageScale="1" pageWidth="827" pageHeight="1169" math="0" shadow="0">
      <root>
        <mxCell id="WIyWlLk6GJQsqaUBKTNV-0" />
        <mxCell id="WIyWlLk6GJQsqaUBKTNV-1" parent="WIyWlLk6GJQsqaUBKTNV-0" />
        <mxCell id="5snLHGXoFpdUn7Hy4HN8-0" value="EmailAddress" style="swimlane;fontStyle=0;childLayout=stackLayout;horizontal=1;startSize=26;fillColor=none;horizontalStack=0;resizeParent=1;resizeParentMax=0;resizeLast=0;collapsible=1;marginBottom=0;" vertex="1" parent="WIyWlLk6GJQsqaUBKTNV-1">
          <mxGeometry x="390" y="30" width="200" height="78" as="geometry" />
        </mxCell>
        <mxCell id="5snLHGXoFpdUn7Hy4HN8-1" value="+ Key: char1" style="text;strokeColor=none;fillColor=none;align=left;verticalAlign=top;spacingLeft=4;spacingRight=4;overflow=hidden;rotatable=0;points=[[0,0.5],[1,0.5]];portConstraint=eastwest;" vertex="1" parent="5snLHGXoFpdUn7Hy4HN8-0">
          <mxGeometry y="26" width="200" height="26" as="geometry" />
        </mxCell>
        <mxCell id="5snLHGXoFpdUn7Hy4HN8-2" value="+ EmailAddress: AD_SMTPADR" style="text;strokeColor=none;fillColor=none;align=left;verticalAlign=top;spacingLeft=4;spacingRight=4;overflow=hidden;rotatable=0;points=[[0,0.5],[1,0.5]];portConstraint=eastwest;" vertex="1" parent="5snLHGXoFpdUn7Hy4HN8-0">
          <mxGeometry y="52" width="200" height="26" as="geometry" />
        </mxCell>
        <mxCell id="5snLHGXoFpdUn7Hy4HN8-3" value="" style="endArrow=none;html=1;edgeStyle=orthogonalEdgeStyle;entryX=0;entryY=0.5;entryDx=0;entryDy=0;exitX=1;exitY=0.5;exitDx=0;exitDy=0;" edge="1" parent="WIyWlLk6GJQsqaUBKTNV-1" source="5snLHGXoFpdUn7Hy4HN8-13" target="5snLHGXoFpdUn7Hy4HN8-1">
          <mxGeometry relative="1" as="geometry">
            <mxPoint x="220" y="48.5" as="sourcePoint" />
            <mxPoint x="380" y="48.5" as="targetPoint" />
          </mxGeometry>
        </mxCell>
        <mxCell id="5snLHGXoFpdUn7Hy4HN8-4" value="parent" style="resizable=0;html=1;align=left;verticalAlign=bottom;labelBackgroundColor=#ffffff;fontSize=10;" connectable="0" vertex="1" parent="5snLHGXoFpdUn7Hy4HN8-3">
          <mxGeometry x="-1" relative="1" as="geometry" />
        </mxCell>
        <mxCell id="5snLHGXoFpdUn7Hy4HN8-5" value="child" style="resizable=0;html=1;align=right;verticalAlign=bottom;labelBackgroundColor=#ffffff;fontSize=10;" connectable="0" vertex="1" parent="5snLHGXoFpdUn7Hy4HN8-3">
          <mxGeometry x="1" relative="1" as="geometry" />
        </mxCell>
        <mxCell id="5snLHGXoFpdUn7Hy4HN8-6" value="" style="endArrow=none;html=1;edgeStyle=orthogonalEdgeStyle;entryX=0;entryY=0.5;entryDx=0;entryDy=0;exitX=1.012;exitY=0.923;exitDx=0;exitDy=0;exitPerimeter=0;" edge="1" parent="WIyWlLk6GJQsqaUBKTNV-1" source="5snLHGXoFpdUn7Hy4HN8-13" target="5snLHGXoFpdUn7Hy4HN8-10">
          <mxGeometry relative="1" as="geometry">
            <mxPoint x="180" y="168.5" as="sourcePoint" />
            <mxPoint x="340" y="168.5" as="targetPoint" />
          </mxGeometry>
        </mxCell>
        <mxCell id="5snLHGXoFpdUn7Hy4HN8-7" value="parent" style="resizable=0;html=1;align=left;verticalAlign=bottom;labelBackgroundColor=#ffffff;fontSize=10;" connectable="0" vertex="1" parent="5snLHGXoFpdUn7Hy4HN8-6">
          <mxGeometry x="-1" relative="1" as="geometry" />
        </mxCell>
        <mxCell id="5snLHGXoFpdUn7Hy4HN8-8" value="child" style="resizable=0;html=1;align=right;verticalAlign=bottom;labelBackgroundColor=#ffffff;fontSize=10;" connectable="0" vertex="1" parent="5snLHGXoFpdUn7Hy4HN8-6">
          <mxGeometry x="1" relative="1" as="geometry" />
        </mxCell>
        <mxCell id="5snLHGXoFpdUn7Hy4HN8-9" value="TEXT" style="swimlane;fontStyle=0;childLayout=stackLayout;horizontal=1;startSize=26;fillColor=none;horizontalStack=0;resizeParent=1;resizeParentMax=0;resizeLast=0;collapsible=1;marginBottom=0;" vertex="1" parent="WIyWlLk6GJQsqaUBKTNV-1">
          <mxGeometry x="390" y="160" width="200" height="78" as="geometry" />
        </mxCell>
        <mxCell id="5snLHGXoFpdUn7Hy4HN8-10" value="+ Text: String" style="text;strokeColor=none;fillColor=none;align=left;verticalAlign=top;spacingLeft=4;spacingRight=4;overflow=hidden;rotatable=0;points=[[0,0.5],[1,0.5]];portConstraint=eastwest;" vertex="1" parent="5snLHGXoFpdUn7Hy4HN8-9">
          <mxGeometry y="26" width="200" height="26" as="geometry" />
        </mxCell>
        <mxCell id="5snLHGXoFpdUn7Hy4HN8-11" value="+ Key: char1" style="text;strokeColor=none;fillColor=none;align=left;verticalAlign=top;spacingLeft=4;spacingRight=4;overflow=hidden;rotatable=0;points=[[0,0.5],[1,0.5]];portConstraint=eastwest;" vertex="1" parent="5snLHGXoFpdUn7Hy4HN8-9">
          <mxGeometry y="52" width="200" height="26" as="geometry" />
        </mxCell>
        <mxCell id="5snLHGXoFpdUn7Hy4HN8-12" value="Header" style="swimlane;fontStyle=0;childLayout=stackLayout;horizontal=1;startSize=26;fillColor=none;horizontalStack=0;resizeParent=1;resizeParentMax=0;resizeLast=0;collapsible=1;marginBottom=0;" vertex="1" parent="WIyWlLk6GJQsqaUBKTNV-1">
          <mxGeometry x="40" y="82" width="200" height="78" as="geometry" />
        </mxCell>
        <mxCell id="5snLHGXoFpdUn7Hy4HN8-13" value="+ Key: char1" style="text;strokeColor=none;fillColor=none;align=left;verticalAlign=top;spacingLeft=4;spacingRight=4;overflow=hidden;rotatable=0;points=[[0,0.5],[1,0.5]];portConstraint=eastwest;" vertex="1" parent="5snLHGXoFpdUn7Hy4HN8-12">
          <mxGeometry y="26" width="200" height="26" as="geometry" />
        </mxCell>
        <mxCell id="5snLHGXoFpdUn7Hy4HN8-14" value="+ ServiceOrderNumber: aufnr" style="text;strokeColor=none;fillColor=none;align=left;verticalAlign=top;spacingLeft=4;spacingRight=4;overflow=hidden;rotatable=0;points=[[0,0.5],[1,0.5]];portConstraint=eastwest;" vertex="1" parent="5snLHGXoFpdUn7Hy4HN8-12">
          <mxGeometry y="52" width="200" height="26" as="geometry" />
        </mxCell>
        <mxCell id="5snLHGXoFpdUn7Hy4HN8-15" value="AttachStream" style="swimlane;fontStyle=0;childLayout=stackLayout;horizontal=1;startSize=26;fillColor=none;horizontalStack=0;resizeParent=1;resizeParentMax=0;resizeLast=0;collapsible=1;marginBottom=0;" vertex="1" parent="WIyWlLk6GJQsqaUBKTNV-1">
          <mxGeometry x="60" y="238" width="140" height="104" as="geometry" />
        </mxCell>
        <mxCell id="5snLHGXoFpdUn7Hy4HN8-16" value="+ FileName: type" style="text;strokeColor=none;fillColor=none;align=left;verticalAlign=top;spacingLeft=4;spacingRight=4;overflow=hidden;rotatable=0;points=[[0,0.5],[1,0.5]];portConstraint=eastwest;" vertex="1" parent="5snLHGXoFpdUn7Hy4HN8-15">
          <mxGeometry y="26" width="140" height="26" as="geometry" />
        </mxCell>
        <mxCell id="5snLHGXoFpdUn7Hy4HN8-17" value="+ FileType: type" style="text;strokeColor=none;fillColor=none;align=left;verticalAlign=top;spacingLeft=4;spacingRight=4;overflow=hidden;rotatable=0;points=[[0,0.5],[1,0.5]];portConstraint=eastwest;" vertex="1" parent="5snLHGXoFpdUn7Hy4HN8-15">
          <mxGeometry y="52" width="140" height="26" as="geometry" />
        </mxCell>
        <mxCell id="5snLHGXoFpdUn7Hy4HN8-18" value="+ FileConten: type" style="text;strokeColor=none;fillColor=none;align=left;verticalAlign=top;spacingLeft=4;spacingRight=4;overflow=hidden;rotatable=0;points=[[0,0.5],[1,0.5]];portConstraint=eastwest;" vertex="1" parent="5snLHGXoFpdUn7Hy4HN8-15">
          <mxGeometry y="78" width="140" height="26" as="geometry" />
        </mxCell>
      </root>
    </mxGraphModel>
  </diagram>
</mxfile>
